# xmcd CD database file
#
# Track frame offsets:
#	150
#	11259
#	24014
#	35185
#	45849
#	56554
#	67794
#	79843
#	93480
#	107133
#	119184
#	129567
#	140051
#	155777
#	168698
#	178540
#
# Disc length: 2570 seconds
#
# Revision: 4
# Processed by: cddbd v1.5.2PL0 Copyright (c) Steve Scherf et al.
# Submitted via: Feurio! 1.68 - http://www.feurio.com
#
DISCID=d70a0810
DTITLE=Various Artist - Freut Euch des Nordens 2
DYEAR=1997
DGENRE=Chanson
TTITLE0=??? - P. Petrel and R. Thoss - Die Norddeutsche Nacht
TTITLE1=??? - Helmut Kuhne - Halt das Dorf fest
TTITLE2=??? - Dorthe Kollo - Sieben Nächte auf dem Meer
TTITLE3=??? - Bea Saalfeld - Kleiner Hummel aus Hamburg
TTITLE4=??? - Peter Petrel - Stimmung im Norden
TTITLE5=??? - Regina Thoss - Und dann sprichst Du noch von Liebe
TTITLE6=Lena Valaitis - Ein Schiff wird kommen
TTITLE7=Jan Willem - Mein Papa ist Seemann
TTITLE8=Carlo von Tiedemann - Hamburg bei Nacht
TTITLE9=Horst Köbbert - Es chwanken die Matrosen
TTITLE10=Heike Schröder - Fischpolonaise
TTITLE11=Georg Moslener - Kleines Akkordeon
TTITLE12=Christian Andersen - Zwei weiße Schwäne
TTITLE13=Kielwater - Alle Mann an Bord
TTITLE14=Christine and Michael - Freut Euch des Nordens
TTITLE15=Peter Petrel - Lichtermeer
EXTD=YEAR: 1997
EXTT0=
EXTT1=
EXTT2=
EXTT3=
EXTT4=
EXTT5=
EXTT6=
EXTT7=
EXTT8=
EXTT9=
EXTT10=
EXTT11=
EXTT12=
EXTT13=
EXTT14=
EXTT15=
PLAYORDER=
